<svg height="512pt" viewBox="0 0 512 512.00001" width="512pt" xmlns="http://www.w3.org/2000/svg"><path d="m512 256c0 141.386719-114.617188 256-256 256-141.386719 0-256-114.613281-256-256 0-141.382812 114.613281-256 256-256 141.382812 0 256 114.617188 256 256zm0 0" fill="#5ed1c7"/><path d="m410.78125 459.921875c-42.976562 32.671875-96.609375 52.078125-154.777344 52.078125-58.171875 0-111.804687-19.40625-154.78125-52.078125 32.097656-15.683594 89.410156-26.121094 154.78125-26.121094 65.367188 0 122.691406 10.4375 154.777344 26.121094zm0 0" fill="#2ba494"/><path d="m436.167969 150.21875c-35.816407-200.289062-324.523438-200.289062-360.335938 0-3.191406 17.832031-4.855469 36.1875-4.855469 54.9375 0 126.746094 76.0625 235.710938 185.023438 283.792969 108.957031-48.082031 185.019531-157.046875 185.019531-283.792969 0-18.75-1.664062-37.105469-4.851562-54.9375zm0 0" fill="#fc5f61"/><path d="m400.859375 183.796875c0 74.394531-56.078125 135.707031-128.273437 143.921875-5.441407.628906-10.96875.949219-16.582032.949219-80 0-144.871094-64.867188-144.871094-144.871094 0-80 64.871094-144.855469 144.871094-144.855469 5.613282 0 11.140625.324219 16.582032.953125 72.195312 8.214844 128.273437 69.511719 128.273437 143.902344zm0 0" fill="#fcf8f2"/><path d="m273.785156 29.519531c-5.859375-.679687-11.835937-1.023437-17.78125-1.023437-6.429687 0-12.765625.390625-18.988281 1.152344-16.503906 2.019531-21.179687-22.027344-5.136719-26.398438 7.949219-2.167969 16.035156-3.25 24.125-3.25-81.128906 0-162.261718 50.082031-180.171875 150.226562-3.1875 17.824219-4.847656 36.183594-4.847656 54.929688 0 126.746094 76.054687 235.707031 185.019531 283.792969-34.183594-22.261719-63.589844-57.566407-85.316406-101.640625-14.460938-29.335938 12.636719-62.390625 44.171875-53.71875 13.109375 3.605468 26.90625 5.53125 41.144531 5.53125 5.945313 0 11.921875-.347656 17.761719-1.023438 78.410156-8.914062 137.539063-75.253906 137.539063-154.300781 0-79.035156-59.128907-145.367187-137.519532-154.277344zm-2.402344 287.816407c-5.066406.585937-10.238281.886718-15.378906.886718-56.164062 0-104.386718-34.628906-124.46875-83.652344 0 0 .011719 0 0-.011718-6.40625-15.671875-9.949218-32.808594-9.949218-50.761719 0-24.910156 6.8125-48.253906 18.664062-68.273437 23.425781-39.550782 66.546875-66.132813 115.753906-66.132813 5.140625 0 10.3125.292969 15.402344.890625 67.84375 7.710938 119 65.117188 119 133.515625 0 68.410156-51.15625 125.816406-119.023438 133.539063zm0 0" fill="#e53841"/><path d="m307.605469 249.257812h-141.679688c-9.292969 0-16.828125-7.535156-16.828125-16.828124v-97.246094c0-9.292969 7.535156-16.828125 16.828125-16.828125h141.679688c9.292969 0 16.828125 7.535156 16.828125 16.828125v97.246094c0 9.292968-7.535156 16.828124-16.828125 16.828124zm0 0" fill="#494966"/><path d="m290.308594 183.804688 71.226562 60.648437v-121.292969zm0 0" fill="#494966"/><g fill="#e6e6e6"><path d="m227.816406 183.804688c0 12.273437-9.949218 22.21875-22.21875 22.21875-12.269531 0-22.21875-9.945313-22.21875-22.21875 0-12.269532 9.949219-22.214844 22.21875-22.214844 12.269532 0 22.21875 9.945312 22.21875 22.214844zm0 0"/><path d="m290.148438 183.804688c0 12.273437-9.949219 22.21875-22.21875 22.21875-12.269532 0-22.21875-9.945313-22.21875-22.21875 0-12.269532 9.949218-22.214844 22.21875-22.214844 12.269531 0 22.21875 9.945312 22.21875 22.214844zm0 0"/></g></svg>