<svg id="Layer_3" enable-background="new 0 0 64 64" height="512" viewBox="0 0 64 64" width="512" xmlns="http://www.w3.org/2000/svg"><path d="m58 62h-52c-2.209 0-4-1.791-4-4v-52c0-2.209 1.791-4 4-4h52c2.209 0 4 1.791 4 4v52c0 2.209-1.791 4-4 4z" fill="#c7e2fc"/><path d="m2 6v46.46c3.326.997 6.849 1.54 10.5 1.54 20.158 0 36.5-16.342 36.5-36.5 0-5.543-1.242-10.794-3.453-15.5h-39.547c-2.209 0-4 1.791-4 4z" fill="#ebf7fe"/><path d="m28 42-20 20h-2c-2.209 0-4-1.791-4-4v-4l11-11-11-11h16" fill="#8892a0"/><path d="m39 62 16-16-8-8 5-8 10 10v12l-10 10" fill="#8892a0"/><path d="m53 23c0-11.598-9.402-21-21-21s-21 9.402-21 21c0 9.393 6.169 17.343 14.676 20.027l6.324 16.973 6.324-16.973c8.507-2.684 14.676-10.634 14.676-20.027z" fill="#2b74ca"/><path d="m11 23c0 8.835 5.459 16.39 13.186 19.491 11.318-2.245 19.814-11.684 19.814-22.991 0-6.733-3.017-12.801-7.845-17.085-1.343-.27-2.732-.415-4.155-.415-11.598 0-21 9.402-21 21z" fill="#3d98f7"/><path d="m38 16-2-4h-8l-2 4" fill="#4d5d7a"/><path d="m43 16h-22c-.552 0-1 .448-1 1v14c0 .552.448 1 1 1h22c.552 0 1-.448 1-1v-14c0-.552-.448-1-1-1z" fill="#4d5d7a"/><path d="m20 17v11.712c1.129.185 2.298.288 3.5.288 9.113 0 16.5-5.596 16.5-12.5 0-.169-.025-.333-.033-.5h-18.967c-.552 0-1 .448-1 1z" fill="#8892a0"/><g fill="#fff"><circle cx="32" cy="24" r="4"/><path d="m23 19h2v2h-2z"/><path d="m39 27h2v2h-2z"/></g><path d="m21 13h2v3h-2z" fill="#4d5d7a"/></svg>